<svg width="26" height="26" viewBox="0 0 26 26" fill="none" xmlns="http://www.w3.org/2000/svg">
<g clip-path="url(#clip0_91_165)">
<path d="M18.5723 13.6732L19.4502 13.0519C19.9911 12.6032 19.9546 11.7663 19.3795 11.3662L16.8839 9.63347C16.7254 9.52359 16.6409 9.33605 16.6631 9.14482L16.7191 8.66356C16.7899 8.05605 16.6393 7.4422 16.2943 6.93505L15.3347 5.52641C15.7721 4.85326 15.994 4.052 15.9483 3.21548C15.8759 1.89427 15.1395 0.737348 13.9779 0.120325C13.8653 0.0606278 13.7993 0.0321036 13.7993 0.0321036C13.681 -0.0170256 13.5452 -0.0101572 13.4343 0.0542903C13.3233 0.119269 13.2483 0.23232 13.2346 0.360159C13.2319 0.384989 12.9245 2.86946 9.04538 2.75429C5.70722 2.66132 2.71614 4.55307 1.40074 7.56264C0.552863 9.50193 -0.727144 14.7197 5.67605 21.2793C5.88099 21.4892 6.09484 21.6743 6.31243 21.8475C6.31857 21.8613 6.31906 21.8761 6.32689 21.8894C7.09975 23.2038 7.10767 24.3364 6.35119 25.3517C6.21754 25.5313 6.25452 25.7854 6.43413 25.9196C6.61243 26.0527 6.86708 26.0172 7.00202 25.8367C7.73306 24.8553 7.90778 23.7699 7.53412 22.5993C8.33034 22.9502 9.1884 23.147 9.97884 22.7838C10.5802 22.5086 11.0371 21.9534 11.3706 21.0946C12.4324 21.5425 13.7026 21.6931 14.8532 21.6206C14.4621 23.054 15.052 24.7206 15.7592 25.8145C15.8798 26.0008 16.1297 26.0575 16.3202 25.9349C16.5083 25.8134 16.5622 25.562 16.4407 25.3739C15.7179 24.2561 15.2535 22.653 15.7654 21.5006C16.7143 21.2913 17.7305 20.773 18.726 19.9834C20.3103 18.7261 20.6024 16.3764 19.3774 14.745L18.5723 13.6732ZM10.6328 20.7557C10.3777 21.4346 10.0517 21.8582 9.64075 22.0463C8.64281 22.5039 7.09303 21.5692 6.25715 20.7129C1.99082 16.342 0.491579 11.6679 2.14402 7.88806C3.35735 5.11204 6.12579 3.47587 9.02372 3.56573C12.4057 3.64708 13.5346 1.93389 13.8865 1.01205C14.6266 1.52078 15.0872 2.33908 15.138 3.25933C15.1966 4.33753 14.6984 5.34389 13.8051 5.95194C12.9652 6.52353 11.8896 7.12576 10.6085 7.74173C8.83751 8.59348 8.16266 10.6764 9.09715 12.3853L9.71258 13.511C9.94366 13.938 9.32683 14.3123 9.05647 13.9061L8.48699 13.0461C7.66164 11.7997 5.80195 11.566 4.81284 12.7556C4.37966 13.2759 4.01779 14.2083 4.75315 15.6928C5.4679 17.136 6.30786 18.0087 7.24871 18.2866C7.73204 18.4295 8.13231 18.3821 8.40276 18.3086C9.58903 19.7783 9.29499 19.3908 9.61432 19.7647C9.83682 20.0755 10.1116 20.3284 10.4095 20.5497C10.4839 20.6175 10.5584 20.6916 10.6328 20.7557ZM18.222 19.3474C17.2246 20.1387 16.2236 20.6268 15.326 20.7594C14.1319 20.9371 12.2004 20.8227 10.955 19.9475C10.697 19.7125 10.4382 19.4602 10.1768 19.1741C9.34601 18.1671 9.43096 18.2951 9.14657 17.9193C9.62836 17.5311 9.92538 16.9373 9.96774 16.1962C9.98042 15.9722 9.80926 15.7805 9.5858 15.7678C9.36234 15.7488 9.17057 15.9263 9.15737 16.1497C9.09354 17.2746 8.28894 17.7478 7.47905 17.5084C6.9867 17.3632 6.24077 16.8676 5.48006 15.3325C5.03948 14.4423 5.02468 13.7693 5.43674 13.2743C6.03397 12.5567 7.2494 12.6477 7.8108 13.4941L8.38028 14.3546C8.72471 14.8734 9.39826 15.0425 9.94713 14.7435C10.5287 14.4275 10.741 13.6997 10.4242 13.1217L9.80925 11.9964C9.09646 10.693 9.61057 9.12223 10.9604 8.47286C11.9502 7.99682 14.0089 6.94604 14.7956 6.17632L15.6234 7.39148C15.8585 7.73697 15.9615 8.15537 15.9129 8.56953L15.8569 9.05078C15.7999 9.54049 16.0159 10.0191 16.4211 10.3001L18.9167 12.0329C19.055 12.1287 19.0468 12.3315 18.9574 12.408L17.7635 13.2516C17.6737 13.315 17.614 13.4117 17.5965 13.52C17.5796 13.6283 17.6071 13.7387 17.6731 13.8264L18.6445 15.1201C18.4826 15.3708 18.1631 15.8094 17.7011 16.1698C17.5241 16.3077 17.493 16.5628 17.6303 16.7393C17.7692 16.9165 18.0235 16.9473 18.1998 16.8101C18.5818 16.5121 18.8776 16.1756 19.0913 15.8936C19.5812 17.0911 19.2642 18.5201 18.222 19.3474Z" fill="#4753BF"/>
<path d="M14.0201 8.78726C13.307 8.78726 12.7269 9.36995 12.7269 10.0858C12.7269 10.7984 13.307 11.3784 14.0201 11.3784C14.736 11.3784 15.3181 10.7984 15.3181 10.0858C15.3181 9.36994 14.736 8.78726 14.0201 8.78726ZM14.0201 10.567C13.7592 10.567 13.5384 10.3467 13.5384 10.0858C13.5384 9.81739 13.7544 9.59868 14.0201 9.59868C14.2885 9.59868 14.5067 9.81739 14.5067 10.0858C14.5067 10.351 14.2885 10.567 14.0201 10.567Z" fill="#4753BF"/>
<path d="M12.8996 8.53739C12.8088 8.33189 12.5658 8.2405 12.364 8.33242C12.2895 8.36517 10.561 9.17501 11.4865 11.9754C11.5573 12.191 11.7911 12.3033 11.9989 12.2332C12.2118 12.1629 12.327 11.9337 12.2567 11.7208C11.5747 9.65681 12.6418 9.09947 12.6994 9.07095C12.9007 8.97797 12.9905 8.74025 12.8996 8.53739Z" fill="#4753BF"/>
<path d="M22.8686 15.5285C23.0045 14.8283 22.3549 13.7928 22.0636 13.5016C21.5691 13.0071 20.7625 13.0082 20.2659 13.5047C19.7709 13.9997 19.7709 14.8043 20.2659 15.2993C20.5306 15.5639 21.4101 16.1271 22.0927 16.1271C22.1638 16.1271 22.2318 16.1184 22.2978 16.1052L24.6173 18.3934C24.7756 18.5496 25.0323 18.5499 25.191 18.3892C25.3484 18.2296 25.3463 17.9729 25.1868 17.8155L22.8686 15.5285ZM20.8396 14.0784C21.0196 13.8985 21.312 13.8974 21.4899 14.0753C21.7599 14.3452 22.0916 15.0573 22.0837 15.3225C21.8412 15.3125 21.1096 14.9955 20.8396 14.7256C20.6584 14.5444 20.6584 14.2596 20.8396 14.0784Z" fill="#4753BF"/>
</g>
<defs>
<clipPath id="clip0_91_165">
<rect width="26" height="26" fill="white"/>
</clipPath>
</defs>
</svg>
