<svg width="26" height="26" viewBox="0 0 26 26" fill="none" xmlns="http://www.w3.org/2000/svg">
<g clip-path="url(#clip0_91_172)">
<path d="M6.75143 15.6648L5.62757 16.8204C5.04106 17.4233 5.05153 18.3932 5.65937 18.9846C6.26146 19.5705 7.23082 19.5621 7.8218 18.9546L8.95806 17.7862C10.2406 18.1657 11.4677 17.7696 12.28 16.9345L17.6179 11.4459C18.1862 11.7387 18.8406 11.6213 19.2698 11.18C19.8138 10.6205 19.7998 9.72927 19.242 9.18687L19.0439 8.99415C20.6411 8.64437 22.2741 7.72115 23.085 6.88722C24.6485 5.27968 24.6145 2.71176 23.0052 1.14708C21.4011 -0.413121 18.8258 -0.377214 17.2651 1.22685C16.454 2.06077 15.5768 3.71879 15.2715 5.32529L15.0737 5.13286C14.5168 4.59116 13.6225 4.60373 13.0805 5.16056C12.6704 5.58225 12.5402 6.23666 12.8608 6.81889L7.52274 12.3078C6.66721 13.1875 6.36165 14.4845 6.75143 15.6648ZM17.8299 1.77624C19.0877 0.48304 21.1624 0.454569 22.4558 1.71186C23.7512 2.97176 23.7813 5.04116 22.5202 6.33782C21.7212 7.1596 19.9297 8.12501 18.3508 8.31968L15.9649 5.99926C16.1158 4.41572 17.0309 2.59802 17.8299 1.77624ZM8.17806 17.458L7.25702 18.4052C6.97207 18.6989 6.50193 18.7045 6.20877 18.4198C5.91455 18.1335 5.90822 17.6618 6.19235 17.3698L7.11365 16.4226C7.38513 16.8446 7.7623 17.2062 8.17806 17.458ZM8.13728 16.4349C7.36177 15.6808 7.11997 14.4584 7.68776 13.4173H14.6014L11.7152 16.3851C10.6954 17.4335 9.09039 17.3616 8.13728 16.4349ZM15.3677 12.6294H8.30903L13.3778 7.41737L17.0055 10.9453L15.3677 12.6294ZM13.6453 5.70995C13.886 5.46286 14.2787 5.45903 14.5243 5.69764L18.6927 9.75164C18.9395 9.99207 18.9441 10.3846 18.705 10.6306C18.4628 10.8792 18.0703 10.8798 17.826 10.6429L13.6576 6.58892C13.4097 6.34798 13.4073 5.95479 13.6453 5.70995Z" fill="#4753BF"/>
<path d="M8.99548 23.4654C8.99548 22.8206 8.51457 21.8775 7.56634 20.6626C7.00383 19.9426 5.92157 19.9456 5.3616 20.6618C4.41132 21.877 3.92964 22.8204 3.92964 23.4654C3.92964 24.863 5.06664 26 6.46422 26C7.86002 26 8.99548 24.863 8.99548 23.4654ZM4.71756 23.4654C4.71756 23.0202 5.17847 22.175 5.98229 21.1471C6.22803 20.833 6.69981 20.8331 6.94513 21.1473C7.74742 22.1753 8.20755 23.0202 8.20755 23.4654C8.20755 24.4285 7.42553 25.2121 6.46422 25.2121C5.50113 25.2121 4.71756 24.4285 4.71756 23.4654Z" fill="#4753BF"/>
<path d="M1.93317 8.80601C2.2791 9.40791 3.04574 9.60444 3.63956 9.26076L4.33849 8.85654V9.66549C4.33849 10.3464 4.89428 10.9171 5.59013 10.9171C6.27828 10.9171 6.83793 10.3557 6.83793 9.66549V8.85551L7.53634 9.25819C7.72409 9.36976 7.94082 9.42875 8.16293 9.42875C8.60922 9.42875 9.02447 9.19047 9.24633 8.80677C9.24684 8.80626 9.24735 8.80549 9.24761 8.80472C9.58848 8.20686 9.38278 7.44099 8.7885 7.09705L8.08676 6.69257L8.78901 6.28732C9.34847 5.96391 9.60918 5.23708 9.24633 4.58144C8.90212 3.98665 8.13754 3.78121 7.54096 4.12413L6.83794 4.52937V3.7194C6.83794 3.04452 6.29949 2.47134 5.59014 2.47134C4.89993 2.47134 4.33849 3.03125 4.33849 3.7194V4.52861L3.63289 4.1208C3.02861 3.7866 2.26403 4.01231 1.93367 4.5817C1.58533 5.18334 1.79405 5.94743 2.3915 6.28784L3.09325 6.69257L2.39099 7.09756C1.79856 7.44004 1.58501 8.20428 1.93317 8.80601ZM2.78495 7.77981L4.07866 7.03395C4.3406 6.88262 4.34214 6.50341 4.07866 6.35119L2.78341 5.60405C2.56391 5.47952 2.48628 5.20001 2.61541 4.97643C2.73955 4.76278 3.02091 4.68275 3.24508 4.80664L4.5352 5.5525C4.79706 5.70323 5.1264 5.51541 5.1264 5.21137V3.7194C5.1264 3.46574 5.33441 3.25926 5.59013 3.25926C5.85543 3.25926 6.05 3.46933 6.05 3.7194V5.21137C6.05 5.5146 6.37933 5.70383 6.64069 5.55275L7.93414 4.80689C8.15369 4.67993 8.43685 4.75611 8.56074 4.96951C8.69975 5.22187 8.60415 5.48443 8.39505 5.60508L7.10134 6.35119C6.83939 6.50253 6.83785 6.88173 7.10134 7.03395L8.39453 7.7793C8.61434 7.90651 8.69 8.19095 8.56382 8.41358C8.4425 8.62236 8.15062 8.70598 7.9344 8.57825L6.64069 7.83213C6.37952 7.68116 6.05 7.87008 6.05 8.17351V9.66548C6.05 9.9212 5.84379 10.1292 5.59013 10.1292C5.33235 10.1292 5.1264 9.91416 5.1264 9.66548V8.17351C5.1264 7.87003 4.79766 7.68131 4.5352 7.83239L3.24508 8.57876C3.02058 8.70728 2.74173 8.63111 2.61541 8.4123C2.48654 8.18839 2.56569 7.9068 2.78495 7.77981Z" fill="#4753BF"/>
</g>
<defs>
<clipPath id="clip0_91_172">
<rect width="26" height="26" fill="white"/>
</clipPath>
</defs>
</svg>
