<svg width="26" height="26" viewBox="0 0 26 26" fill="none" xmlns="http://www.w3.org/2000/svg">
<g clip-path="url(#clip0_91_149)">
<path d="M20.0168 8.62934V6.46354C20.0168 5.2068 19.0914 4.16997 17.8878 3.97777V2.67079C17.8878 1.89626 17.2577 1.26608 16.4831 1.26608H9.5532C8.77867 1.26608 8.14849 1.89626 8.14849 2.67079V3.97407C6.92734 4.15084 5.9832 5.1942 5.9832 6.46354V8.62933H2.52568C1.13292 8.62934 0 9.76251 0 11.1553V22.208C0 23.6008 1.13292 24.7339 2.52568 24.7339H23.4738C24.8666 24.7339 26 23.6008 26 22.208V11.1553C26 9.76251 24.8666 8.62934 23.4738 8.62934H20.0168ZM8.91306 2.67079C8.91306 2.31787 9.20028 2.03066 9.5532 2.03066H16.4831C16.8361 2.03066 17.1233 2.31787 17.1233 2.67079V3.93761H8.91306V2.67079ZM0.764573 22.208V11.1553C0.764573 10.1841 1.55453 9.39391 2.52568 9.39391H5.98319V23.9694H2.52568C1.55453 23.9694 0.764573 23.1791 0.764573 22.208ZM6.74776 6.46354C6.74776 5.49239 7.53772 4.70218 8.50887 4.70218H8.53077H17.4906C18.4618 4.70218 19.2522 5.49239 19.2522 6.46354V23.9694H16.857V17.1999C16.857 16.2288 16.067 15.4388 15.0959 15.4388H10.9036C9.93299 15.4388 9.14303 16.2288 9.14303 17.1999V23.9694H6.74776C6.74776 19.4615 6.74776 10.9619 6.74776 6.46354ZM16.0924 23.9694H9.90761V17.1999C9.90761 16.6504 10.3546 16.2034 10.9036 16.2034H15.0959C15.6454 16.2034 16.0924 16.6504 16.0924 17.1999L16.0924 23.9694ZM25.2354 11.1553V22.208C25.2354 23.1791 24.445 23.9694 23.4738 23.9694H20.0168V9.39391H23.4738C24.445 9.39391 25.2354 10.1841 25.2354 11.1553Z" fill="#4753BF"/>
<path d="M4.10213 10.8449H2.64565C2.18273 10.8449 1.80641 11.2215 1.80641 11.6841V13.1406C1.80641 13.6033 2.18272 13.9796 2.64565 13.9796H4.10213C4.56505 13.9796 4.94137 13.6033 4.94137 13.1406V11.6841C4.94137 11.2215 4.56506 10.8449 4.10213 10.8449ZM4.17679 13.1406C4.17679 13.1817 4.14344 13.215 4.10213 13.215H2.64565C2.60434 13.215 2.57099 13.1817 2.57099 13.1406V11.6841C2.57099 11.6431 2.60434 11.6095 2.64565 11.6095H4.10213C4.14344 11.6095 4.17679 11.6431 4.17679 11.6841L4.17679 13.1406Z" fill="#4753BF"/>
<path d="M4.10213 15.1143H2.64565C2.18273 15.1143 1.80641 15.4906 1.80641 15.9533V17.41C1.80641 17.8727 2.18272 18.249 2.64565 18.249H4.10213C4.56505 18.249 4.94137 17.8727 4.94137 17.41V15.9533C4.94137 15.4906 4.56506 15.1143 4.10213 15.1143ZM4.17679 17.41C4.17679 17.4511 4.14344 17.4844 4.10213 17.4844H2.64565C2.60434 17.4844 2.57099 17.4511 2.57099 17.41V15.9533C2.57099 15.9122 2.60434 15.8789 2.64565 15.8789H4.10213C4.14344 15.8789 4.17679 15.9122 4.17679 15.9533L4.17679 17.41Z" fill="#4753BF"/>
<path d="M4.10213 19.3836H2.64565C2.18273 19.3836 1.80641 19.76 1.80641 20.2226V21.6791C1.80641 22.1418 2.18272 22.5183 2.64565 22.5183H4.10213C4.56505 22.5183 4.94137 22.1418 4.94137 21.6791V20.2226C4.94137 19.76 4.56506 19.3836 4.10213 19.3836ZM4.17679 21.6791C4.17679 21.7202 4.14344 21.7538 4.10213 21.7538H2.64565C2.60434 21.7538 2.57099 21.7202 2.57099 21.6791V20.2226C2.57099 20.1816 2.60434 20.1482 2.64565 20.1482H4.10213C4.14344 20.1482 4.17679 20.1816 4.17679 20.2226L4.17679 21.6791Z" fill="#4753BF"/>
<path d="M21.8979 10.8449C21.435 10.8449 21.0587 11.2215 21.0587 11.6841V13.1406C21.0587 13.6033 21.435 13.9796 21.8979 13.9796H23.3544C23.8168 13.9796 24.1931 13.6033 24.1931 13.1406V11.6841C24.1931 11.2215 23.8168 10.8449 23.3544 10.8449H21.8979ZM23.4285 11.6841V13.1406C23.4285 13.1817 23.3952 13.215 23.3544 13.215H21.8979C21.8566 13.215 21.8232 13.1817 21.8232 13.1406V11.6841C21.8232 11.6431 21.8566 11.6095 21.8979 11.6095H23.3544C23.3952 11.6095 23.4285 11.6431 23.4285 11.6841Z" fill="#4753BF"/>
<path d="M23.3544 15.1143H21.8979C21.435 15.1143 21.0587 15.4906 21.0587 15.9533V17.41C21.0587 17.8727 21.435 18.249 21.8979 18.249H23.3544C23.8168 18.249 24.1931 17.8727 24.1931 17.41V15.9533C24.1931 15.4906 23.8168 15.1143 23.3544 15.1143ZM23.4285 17.41C23.4285 17.4511 23.3952 17.4844 23.3544 17.4844H21.8979C21.8566 17.4844 21.8232 17.4511 21.8232 17.41V15.9533C21.8232 15.9122 21.8566 15.8789 21.8979 15.8789H23.3544C23.3952 15.8789 23.4285 15.9122 23.4285 15.9533V17.41Z" fill="#4753BF"/>
<path d="M8.33964 9.27171H9.79611C10.259 9.27171 10.6354 8.8954 10.6354 8.43271V6.97599C10.6354 6.51332 10.259 6.137 9.79611 6.137H8.33964C7.87671 6.137 7.5004 6.51331 7.5004 6.97599V8.43271C7.5004 8.8954 7.87671 9.27171 8.33964 9.27171ZM8.26498 6.97599C8.26498 6.93493 8.29833 6.90158 8.33964 6.90158H9.79611C9.83743 6.90158 9.87078 6.93493 9.87078 6.97599V8.43271C9.87078 8.47378 9.83743 8.50713 9.79611 8.50713H8.33964C8.29833 8.50713 8.26498 8.47378 8.26498 8.43271V6.97599Z" fill="#4753BF"/>
<path d="M9.79611 13.5411C10.259 13.5411 10.6354 13.1645 10.6354 12.7018V11.2454C10.6354 10.7827 10.259 10.4061 9.79611 10.4061H8.33964C7.87671 10.4061 7.5004 10.7827 7.5004 11.2454V12.7018C7.5004 13.1645 7.87671 13.5411 8.33964 13.5411H9.79611ZM8.26498 12.7018V11.2454C8.26498 11.2043 8.29833 11.1707 8.33964 11.1707H9.79611C9.83743 11.1707 9.87078 11.2043 9.87078 11.2454V12.7018C9.87078 12.7429 9.83743 12.7765 9.79611 12.7765H8.33964C8.29833 12.7765 8.26498 12.7429 8.26498 12.7018Z" fill="#4753BF"/>
<path d="M12.2715 9.27171H13.728C14.1909 9.27171 14.5672 8.8954 14.5672 8.43271V6.97599C14.5672 6.51332 14.1909 6.137 13.728 6.137H12.2715C11.8091 6.137 11.4328 6.51331 11.4328 6.97599V8.43271C11.4328 8.8954 11.8091 9.27171 12.2715 9.27171ZM12.1973 6.97599C12.1973 6.93493 12.2307 6.90158 12.2715 6.90158H13.728C13.7693 6.90158 13.8027 6.93493 13.8027 6.97599V8.43271C13.8027 8.47378 13.7693 8.50713 13.728 8.50713H12.2715C12.2307 8.50713 12.1973 8.47378 12.1973 8.43271V6.97599Z" fill="#4753BF"/>
<path d="M12.2715 13.5411H13.728C14.1909 13.5411 14.5672 13.1645 14.5672 12.7018V11.2454C14.5672 10.7827 14.1909 10.4061 13.728 10.4061H12.2715C11.8091 10.4061 11.4328 10.7827 11.4328 11.2454V12.7018C11.4328 13.1645 11.8091 13.5411 12.2715 13.5411ZM12.1973 11.2454C12.1973 11.2043 12.2307 11.1707 12.2715 11.1707H13.728C13.7693 11.1707 13.8027 11.2043 13.8027 11.2454V12.7018C13.8027 12.7429 13.7693 12.7765 13.728 12.7765H12.2715C12.2307 12.7765 12.1973 12.7429 12.1973 12.7018V11.2454Z" fill="#4753BF"/>
<path d="M16.2034 9.27171H17.6604C18.1228 9.27171 18.4991 8.8954 18.4991 8.43271V6.97599C18.4991 6.51332 18.1228 6.137 17.6604 6.137H16.2034C15.741 6.137 15.3647 6.51331 15.3647 6.97599V8.43271C15.3647 8.8954 15.741 9.27171 16.2034 9.27171ZM16.1292 6.97599C16.1292 6.93493 16.1626 6.90158 16.2034 6.90158H17.6604C17.7012 6.90158 17.7345 6.93493 17.7345 6.97599V8.43271C17.7345 8.47378 17.7012 8.50713 17.6604 8.50713H16.2034C16.1626 8.50713 16.1292 8.47378 16.1292 8.43271V6.97599Z" fill="#4753BF"/>
<path d="M16.2034 13.5411H17.6604C18.1228 13.5411 18.4991 13.1645 18.4991 12.7018V11.2454C18.4991 10.7827 18.1228 10.4061 17.6604 10.4061H16.2034C15.741 10.4061 15.3647 10.7827 15.3647 11.2454V12.7018C15.3647 13.1645 15.741 13.5411 16.2034 13.5411ZM16.1292 11.2454C16.1292 11.2043 16.1626 11.1707 16.2034 11.1707H17.6604C17.7012 11.1707 17.7345 11.2043 17.7345 11.2454V12.7018C17.7345 12.7429 17.7012 12.7765 17.6604 12.7765H16.2034C16.1626 12.7765 16.1292 12.7429 16.1292 12.7018V11.2454Z" fill="#4753BF"/>
<path d="M23.3544 19.3836H21.8979C21.435 19.3836 21.0587 19.76 21.0587 20.2226V21.6791C21.0587 22.1418 21.435 22.5183 21.8979 22.5183H23.3544C23.8168 22.5183 24.1931 22.1418 24.1931 21.6791V20.2226C24.1931 19.76 23.8168 19.3836 23.3544 19.3836ZM23.4285 21.6791C23.4285 21.7202 23.3952 21.7538 23.3544 21.7538H21.8979C21.8566 21.7538 21.8232 21.7202 21.8232 21.6791V20.2226C21.8232 20.1816 21.8566 20.1482 21.8979 20.1482H23.3544C23.3952 20.1482 23.4285 20.1816 23.4285 20.2226V21.6791Z" fill="#4753BF"/>
</g>
<defs>
<clipPath id="clip0_91_149">
<rect width="26" height="26" fill="white"/>
</clipPath>
</defs>
</svg>
